<svg width="67" height="67" viewBox="0 0 100 100" fill="none" xmlns="http://www.w3.org/2000/svg">
<g id="Call">
<g id="Ellipse 1" filter="url(#filter0_b_14_97)">
<circle cx="50" cy="50" r="50" fill="#D9D9D9" fill-opacity="0.24"/>
</g>
<path id="Vector" d="M51.2536 38.4097C53.3111 38.8104 55.202 39.8147 56.6842 41.2941C58.1665 42.7736 59.1727 44.6608 59.5742 46.7144M51.2536 30C55.5282 30.474 59.5143 32.3845 62.5574 35.418C65.6005 38.4515 67.5197 42.4275 68 46.6933M65.8935 63.4708V69.7781C65.8959 70.3636 65.7758 70.9432 65.5407 71.4797C65.3057 72.0162 64.961 72.4977 64.5287 72.8936C64.0964 73.2894 63.5861 73.5908 63.0303 73.7784C62.4746 73.966 61.8857 74.0356 61.3015 73.9829C54.8195 73.28 48.5932 71.0693 43.1227 67.5285C38.0331 64.3005 33.7181 59.9937 30.4839 54.9139C26.924 49.429 24.7085 43.1844 24.0171 36.6857C23.9645 36.1043 24.0337 35.5184 24.2204 34.9652C24.4071 34.4119 24.7071 33.9036 25.1014 33.4724C25.4958 33.0413 25.9757 32.6968 26.5107 32.4609C27.0457 32.2251 27.6241 32.103 28.209 32.1024H34.5283C35.5506 32.0924 36.5417 32.4537 37.3168 33.119C38.0919 33.7844 38.5982 34.7083 38.7413 35.7186C39.008 37.7371 39.5026 39.719 40.2158 41.6265C40.4992 42.379 40.5605 43.1968 40.3925 43.983C40.2245 44.7693 39.8342 45.491 39.2679 46.0626L36.5927 48.7327C39.5913 53.9962 43.9578 58.3544 49.2314 61.3473L51.9066 58.6772C52.4794 58.1119 53.2024 57.7224 53.9902 57.5547C54.7779 57.387 55.5973 57.4482 56.3513 57.7311C58.2624 58.4429 60.2481 58.9366 62.2704 59.2028C63.2937 59.3469 64.2282 59.8613 64.8962 60.6482C65.5642 61.4351 65.9192 62.4397 65.8935 63.4708Z" stroke="white" stroke-width="2" stroke-linecap="round" stroke-linejoin="round"/>
</g>
<defs>
<filter id="filter0_b_14_97" x="-16" y="-16" width="132" height="132" filterUnits="userSpaceOnUse" color-interpolation-filters="sRGB">
<feFlood flood-opacity="0" result="BackgroundImageFix"/>
<feGaussianBlur in="BackgroundImageFix" stdDeviation="8"/>
<feComposite in2="SourceAlpha" operator="in" result="effect1_backgroundBlur_14_97"/>
<feBlend mode="normal" in="SourceGraphic" in2="effect1_backgroundBlur_14_97" result="shape"/>
</filter>
</defs>
</svg>
